<svg width="49" height="59" viewBox="0 0 49 59" fill="none" xmlns="http://www.w3.org/2000/svg">
<g filter="url(#filter0_d_484_260)">
<path d="M41.4285 23.27C40.4082 20.9747 38.9249 18.9145 37.0716 17.2184L35.5422 15.8158C35.4902 15.7694 35.4277 15.7366 35.3601 15.72C35.2925 15.7035 35.2219 15.7038 35.1544 15.7209C35.087 15.738 35.0248 15.7714 34.9732 15.8182C34.9217 15.865 34.8825 15.9237 34.8589 15.9891L34.1757 17.9485C33.75 19.1778 32.9669 20.4333 31.8579 21.6678C31.7843 21.7466 31.7003 21.7676 31.6424 21.7729C31.5846 21.7781 31.4953 21.7676 31.4165 21.6941C31.3429 21.631 31.3061 21.5365 31.3113 21.4419C31.5058 18.2795 30.5598 14.7126 28.489 10.8305C26.7757 7.60506 24.3949 5.0888 21.4202 3.33424L19.2496 2.05772C18.9658 1.88962 18.6031 2.11025 18.6189 2.4412C18.6346 2.77201 18.7344 4.96089 18.7345 4.96272C18.7345 4.96278 18.7345 4.96275 18.7345 4.96281C18.8133 6.68581 18.6136 8.2092 18.1406 9.47519C17.5625 11.0249 16.7321 12.4642 15.6704 13.7565C14.9316 14.6546 14.0942 15.4669 13.174 16.1782C10.9577 17.8811 9.15558 20.0631 7.90255 22.5608C6.65262 25.0803 6.00152 27.8542 6 30.6665C6 33.1459 6.48878 35.5466 7.45582 37.8108C8.38958 39.9906 9.73709 41.969 11.4239 43.6365C13.1267 45.3175 15.1028 46.6413 17.305 47.5606C19.5859 48.5167 22.0035 49 24.5 49C26.9964 49 29.414 48.5167 31.695 47.5659C33.8917 46.652 35.8893 45.3191 37.5761 43.6418C39.2789 41.9608 40.6139 39.9961 41.5441 37.816C42.5097 35.5581 43.0051 33.1272 43 30.6717C43 28.1082 42.4744 25.6182 41.4285 23.27Z" fill="url(#paint0_linear_484_260)"/>
<path d="M40.515 23.6769L40.5147 23.6762C39.5503 21.5066 38.1483 19.5593 36.3964 17.9561L36.3957 17.9554L35.5142 17.147L35.1206 18.2758C35.1205 18.276 35.1205 18.2762 35.1204 18.2764C34.6407 19.6612 33.7758 21.0292 32.6019 22.3361L32.5954 22.3432L32.5888 22.3503C32.2964 22.6635 31.9488 22.7491 31.7329 22.7687C31.4788 22.7918 31.0872 22.745 30.7494 22.4391C30.4341 22.1598 30.292 21.7629 30.3129 21.3864L30.3132 21.3805C30.4928 18.4606 29.6224 15.0801 27.6067 11.3011L27.6059 11.2996C25.9748 8.229 23.7205 5.85215 20.9126 4.19586C20.9124 4.19577 20.9123 4.19567 20.9121 4.19558L19.6671 3.46336C19.6719 3.56824 19.6767 3.67463 19.6815 3.77965L19.7176 4.56889L19.7291 4.82186L19.7323 4.89219L19.7332 4.91202L19.7333 4.91424L19.7335 4.91684L19.7335 4.91711C19.7336 4.92097 19.7338 4.92483 19.734 4.9287C19.8159 6.74536 19.6078 8.40536 19.0775 9.82472C18.4604 11.479 17.5741 13.0146 16.4431 14.3913L16.4427 14.3918C15.6563 15.3477 14.765 16.2124 13.7856 16.9694L13.7833 16.9712C11.6871 18.5818 9.98264 20.6453 8.79731 23.0074C7.61659 25.3882 7.00152 28.0092 7 30.6665L40.515 23.6769ZM40.515 23.6769C41.5035 25.8962 42 28.2475 42 30.6717L42 30.6738C42.0048 32.9935 41.5369 35.2898 40.6247 37.4228L40.6244 37.4235C39.7452 39.484 38.484 41.3403 36.8736 42.9301L36.871 42.9327C35.2763 44.5184 33.3877 45.7786 31.3109 46.6426L31.3102 46.6429C29.1519 47.5426 26.8652 48 24.5 48C22.1348 48 19.8488 47.5426 17.6915 46.6384L17.6902 46.6378M40.515 23.6769L17.6902 46.6378M17.6902 46.6378C15.6085 45.7688 13.7396 44.5174 12.1264 42.9249C10.5318 41.3484 9.25796 39.4781 8.37519 37.4173M17.6902 46.6378L8.37519 37.4173M8.37519 37.4173C7.46187 35.2788 7.00007 33.0122 7 30.667L8.37519 37.4173ZM18.7399 2.91813L18.7426 2.91971C18.7417 2.91918 18.7408 2.91866 18.7399 2.91813ZM35.2561 16.1276L35.2531 16.1266L34.8589 15.9891C34.8825 15.9237 34.9217 15.865 34.9732 15.8182C35.0248 15.7714 35.087 15.738 35.1544 15.7209C35.2219 15.7038 35.2925 15.7035 35.3601 15.72L35.2561 16.1276ZM31.3357 20.7471C31.3626 17.7602 30.4095 14.4309 28.489 10.8305L31.3113 21.4419C31.3165 21.3577 31.3209 21.2733 31.3244 21.1886L31.114 20.9995C31.1897 20.9153 31.2636 20.8311 31.3357 20.7471ZM32.0192 21.4854C31.9663 21.5463 31.9125 21.607 31.8579 21.6678L32.3278 21.1197C32.3234 21.248 32.3173 21.3759 32.3095 21.5033L32.0192 21.4854ZM31.127 20.9853C31.1927 20.9149 31.2654 20.8675 31.3346 20.8357C31.3328 20.9478 31.3297 21.0593 31.3252 21.1703L31.127 20.9853ZM32.2602 21.2019C32.1829 21.2952 32.1037 21.3883 32.0227 21.4814L32.3098 21.4974C32.3152 21.4007 32.2995 21.2988 32.2602 21.2019Z" stroke="url(#paint1_linear_484_260)" stroke-width="2"/>
</g>
<g filter="url(#filter1_d_484_260)">
<path d="M20.145 29.5659V31.0513H15.3208V29.5659H20.145ZM15.8857 25.8018V35.0439H13.9814V25.8018H15.8857ZM21.5034 25.8018V35.0439H19.6055V25.8018H21.5034ZM22.6239 31.6797V31.5464C22.6239 31.0428 22.6958 30.5794 22.8397 30.1562C22.9836 29.7288 23.1931 29.3586 23.4681 29.0454C23.7432 28.7323 24.0818 28.4889 24.4838 28.3154C24.8858 28.1377 25.3471 28.0488 25.8676 28.0488C26.3881 28.0488 26.8514 28.1377 27.2577 28.3154C27.6639 28.4889 28.0046 28.7323 28.2797 29.0454C28.559 29.3586 28.7706 29.7288 28.9144 30.1562C29.0583 30.5794 29.1303 31.0428 29.1303 31.5464V31.6797C29.1303 32.179 29.0583 32.6424 28.9144 33.0698C28.7706 33.493 28.559 33.8633 28.2797 34.1807C28.0046 34.4938 27.6661 34.7371 27.264 34.9106C26.862 35.0841 26.4008 35.1709 25.8803 35.1709C25.3597 35.1709 24.8964 35.0841 24.4901 34.9106C24.0881 34.7371 23.7474 34.4938 23.4681 34.1807C23.1931 33.8633 22.9836 33.493 22.8397 33.0698C22.6958 32.6424 22.6239 32.179 22.6239 31.6797ZM24.452 31.5464V31.6797C24.452 31.9674 24.4774 32.2362 24.5282 32.4858C24.579 32.7355 24.6594 32.9556 24.7694 33.146C24.8837 33.3322 25.0318 33.4782 25.2137 33.584C25.3957 33.6898 25.6179 33.7427 25.8803 33.7427C26.1342 33.7427 26.3521 33.6898 26.5341 33.584C26.716 33.4782 26.862 33.3322 26.9721 33.146C27.0821 32.9556 27.1625 32.7355 27.2133 32.4858C27.2683 32.2362 27.2958 31.9674 27.2958 31.6797V31.5464C27.2958 31.2671 27.2683 31.0047 27.2133 30.7593C27.1625 30.5096 27.08 30.2896 26.9657 30.0991C26.8557 29.9045 26.7097 29.7521 26.5277 29.6421C26.3457 29.5321 26.1257 29.4771 25.8676 29.4771C25.6094 29.4771 25.3894 29.5321 25.2074 29.6421C25.0297 29.7521 24.8837 29.9045 24.7694 30.0991C24.6594 30.2896 24.579 30.5096 24.5282 30.7593C24.4774 31.0047 24.452 31.2671 24.452 31.5464ZM33.488 28.1758V29.4707H29.489V28.1758H33.488ZM30.4793 26.481H32.3074V32.9746C32.3074 33.1735 32.3328 33.3258 32.3836 33.4316C32.4386 33.5374 32.519 33.6115 32.6248 33.6538C32.7306 33.6919 32.8639 33.7109 33.0247 33.7109C33.1389 33.7109 33.2405 33.7067 33.3294 33.6982C33.4225 33.6855 33.5007 33.6729 33.5642 33.6602L33.5706 35.0059C33.414 35.0566 33.2447 35.0968 33.0628 35.1265C32.8808 35.1561 32.6798 35.1709 32.4597 35.1709C32.0577 35.1709 31.7065 35.1053 31.406 34.9741C31.1098 34.8387 30.8813 34.6229 30.7205 34.3267C30.5597 34.0304 30.4793 33.6411 30.4793 33.1587V26.481ZM36.4621 25.8018L36.2526 32.2192H34.7291L34.5133 25.8018H36.4621ZM34.4625 34.2061C34.4625 33.9352 34.5556 33.7109 34.7418 33.5332C34.9323 33.3512 35.1819 33.2603 35.4909 33.2603C35.804 33.2603 36.0537 33.3512 36.2399 33.5332C36.4261 33.7109 36.5192 33.9352 36.5192 34.2061C36.5192 34.4684 36.4261 34.6906 36.2399 34.8726C36.0537 35.0545 35.804 35.1455 35.4909 35.1455C35.1819 35.1455 34.9323 35.0545 34.7418 34.8726C34.5556 34.6906 34.4625 34.4684 34.4625 34.2061Z" fill="white"/>
</g>
<defs>
<filter id="filter0_d_484_260" x="0" y="0" width="49" height="59" filterUnits="userSpaceOnUse" color-interpolation-filters="sRGB">
<feFlood flood-opacity="0" result="BackgroundImageFix"/>
<feColorMatrix in="SourceAlpha" type="matrix" values="0 0 0 0 0 0 0 0 0 0 0 0 0 0 0 0 0 0 127 0" result="hardAlpha"/>
<feOffset dy="4"/>
<feGaussianBlur stdDeviation="3"/>
<feComposite in2="hardAlpha" operator="out"/>
<feColorMatrix type="matrix" values="0 0 0 0 1 0 0 0 0 0.337255 0 0 0 0 0.568627 0 0 0 0.3 0"/>
<feBlend mode="normal" in2="BackgroundImageFix" result="effect1_dropShadow_484_260"/>
<feBlend mode="normal" in="SourceGraphic" in2="effect1_dropShadow_484_260" result="shape"/>
</filter>
<filter id="filter1_d_484_260" x="13.9814" y="25.8018" width="24.5376" height="11.3691" filterUnits="userSpaceOnUse" color-interpolation-filters="sRGB">
<feFlood flood-opacity="0" result="BackgroundImageFix"/>
<feColorMatrix in="SourceAlpha" type="matrix" values="0 0 0 0 0 0 0 0 0 0 0 0 0 0 0 0 0 0 127 0" result="hardAlpha"/>
<feOffset dx="1" dy="1"/>
<feGaussianBlur stdDeviation="0.5"/>
<feComposite in2="hardAlpha" operator="out"/>
<feColorMatrix type="matrix" values="0 0 0 0 0.86 0 0 0 0 0 0 0 0 0 1 0 0 0 1 0"/>
<feBlend mode="normal" in2="BackgroundImageFix" result="effect1_dropShadow_484_260"/>
<feBlend mode="normal" in="SourceGraphic" in2="effect1_dropShadow_484_260" result="shape"/>
</filter>
<linearGradient id="paint0_linear_484_260" x1="24.5" y1="2" x2="24.5" y2="49" gradientUnits="userSpaceOnUse">
<stop stop-color="#FF6745"/>
<stop offset="1" stop-color="#FF45D6"/>
</linearGradient>
<linearGradient id="paint1_linear_484_260" x1="24.5" y1="2" x2="24.5" y2="49" gradientUnits="userSpaceOnUse">
<stop stop-color="#E64D2C"/>
<stop offset="1" stop-color="#E22CE6"/>
</linearGradient>
</defs>
</svg>
