<svg fill="none" height="55" viewBox="0 0 55 55" width="55" xmlns="http://www.w3.org/2000/svg" xmlns:xlink="http://www.w3.org/1999/xlink"><linearGradient id="a" gradientUnits="userSpaceOnUse" x1="26.5" x2="26.5" y1="8" y2="49"><stop offset="0" stop-color="#ff6745"/><stop offset="1" stop-color="#ff45d6"/></linearGradient><linearGradient id="b" gradientUnits="userSpaceOnUse" x1="26.5" x2="26.5" y1="8" y2="49"><stop offset="0" stop-color="#e64d2c"/><stop offset="1" stop-color="#e22ce6"/></linearGradient><path d="m37.0161 19.3076h.0001l-.0104-.0091c-.1692-.1476-.371-.2508-.5871-.3025-.216-.0517-.4414-.0507-.657.0028s-.4166.1584-.5846.3075c-.168.1492-.2981.3383-.3767.552v-.0001l-.0033.0093-.6094 1.7093-.0007.002c-.1532.4328-.3715.8808-.6569 1.3393-.2407-2.4195-1.1254-4.9999-2.5938-7.6927-1.6129-2.9694-3.8648-5.3016-6.6835-6.92768l-.0011-.00064-1.9332-1.11201c-.0006-.00032-.0011-.00063-.0017-.00094-.9128-.52722-2.1149.14067-2.0609 1.2494.0139.28718.1029 2.19467.103 2.19757v.0002c.0656 1.4022-.1038 2.5874-.4649 3.5328l-.0002.0004c-.4752 1.2457-1.1582 2.4047-2.0345 3.448-.6102.7254-1.3021 1.3819-2.0628 1.9572-2.096 1.5755-3.8023 3.5954-4.9894 5.91l-.0021.004c-1.18546 2.3372-1.80355 4.9117-1.805 7.5227v.0005c0 2.3.46411 4.5305 1.382 6.6325l.0004.0009c.8855 2.0219 2.1627 3.8554 3.76 5.3998l.0005.0005c1.6092 1.5538 3.4788 2.779 5.5616 3.6295 2.1561.8837 4.441 1.3299 6.7955 1.3299 2.3548 0 4.6393-.4463 6.7947-1.325 2.0765-.8451 3.9663-2.0779 5.5633-3.6307 1.6115-1.5562 2.8775-3.3778 3.7598-5.3999.9165-2.0962 1.387-4.3539 1.3822-6.635-.0003-2.378-.4995-4.6905-1.4912-6.8685-.9677-2.1292-2.3736-4.0387-4.1286-5.6097 0-.0001-.0001-.0001-.0001-.0001-.0002-.0002-.0005-.0004-.0007-.0006z" fill="url(#a)" stroke="url(#b)" stroke-width="2"/><g fill="#e437ac"><path d="m22.145 33.5659v1.4854h-4.8242v-1.4854zm-4.2593-3.7641v9.2421h-1.9043v-9.2421zm5.6177 0v9.2421h-1.8979v-9.2421z"/><path d="m24.6239 35.6797v-.1333c0-.5036.0719-.967.2158-1.3902.1439-.4274.3534-.7976.6284-1.1108.2751-.3131.6137-.5565 1.0157-.73.402-.1777.8633-.2666 1.3838-.2666s.9838.0889 1.3901.2666c.4062.1735.7469.4169 1.022.73.2793.3132.4909.6834.6347 1.1108.1439.4232.2159.8866.2159 1.3902v.1333c0 .4993-.072.9627-.2159 1.3901-.1438.4232-.3554.7935-.6347 1.1109-.2751.3131-.6136.5564-1.0157.7299-.402.1735-.8632.2603-1.3837.2603-.5206 0-.9839-.0868-1.3902-.2603-.402-.1735-.7427-.4168-1.022-.7299-.275-.3174-.4845-.6877-.6284-1.1109-.1439-.4274-.2158-.8908-.2158-1.3901zm1.8281-.1333v.1333c0 .2877.0254.5565.0762.8061.0508.2497.1312.4698.2412.6602.1143.1862.2624.3322.4443.438.182.1058.4042.1587.6666.1587.2539 0 .4718-.0529.6538-.1587.1819-.1058.3279-.2518.438-.438.11-.1904.1904-.4105.2412-.6602.055-.2496.0825-.5184.0825-.8061v-.1333c0-.2793-.0275-.5417-.0825-.7871-.0508-.2497-.1333-.4697-.2476-.6602-.11-.1946-.256-.347-.438-.457s-.402-.165-.6601-.165c-.2582 0-.4782.055-.6602.165-.1777.11-.3237.2624-.438.457-.11.1905-.1904.4105-.2412.6602-.0508.2454-.0762.5078-.0762.7871z"/><path d="m35.488 32.1758v1.2949h-3.999v-1.2949zm-3.0087-1.6948h1.8281v6.4936c0 .1989.0254.3512.0762.457.055.1058.1354.1799.2412.2222.1058.0381.2391.0571.3999.0571.1142 0 .2158-.0042.3047-.0127.0931-.0127.1713-.0253.2348-.038l.0064 1.3457c-.1566.0507-.3259.0909-.5078.1206-.182.0296-.383.0444-.6031.0444-.402 0-.7532-.0656-1.0537-.1968-.2962-.1354-.5247-.3512-.6855-.6474-.1608-.2963-.2412-.6856-.2412-1.168z"/><path d="m38.4621 29.8018-.2095 6.4174h-1.5235l-.2158-6.4174zm-1.9996 8.4043c0-.2709.0931-.4952.2793-.6729.1905-.182.4401-.2729.7491-.2729.3131 0 .5628.0909.749.2729.1862.1777.2793.402.2793.6729 0 .2623-.0931.4845-.2793.6665-.1862.1819-.4359.2729-.749.2729-.309 0-.5586-.091-.7491-.2729-.1862-.182-.2793-.4042-.2793-.6665z"/></g><path d="m22.145 32.5659v1.4854h-4.8242v-1.4854zm-4.2593-3.7641v9.2421h-1.9043v-9.2421zm5.6177 0v9.2421h-1.8979v-9.2421z" fill="#fff"/><path d="m24.6239 34.6797v-.1333c0-.5036.0719-.967.2158-1.3902.1439-.4274.3534-.7976.6284-1.1108.2751-.3131.6137-.5565 1.0157-.73.402-.1777.8633-.2666 1.3838-.2666s.9838.0889 1.3901.2666c.4062.1735.7469.4169 1.022.73.2793.3132.4909.6834.6347 1.1108.1439.4232.2159.8866.2159 1.3902v.1333c0 .4993-.072.9627-.2159 1.3901-.1438.4232-.3554.7935-.6347 1.1109-.2751.3131-.6136.5564-1.0157.7299-.402.1735-.8632.2603-1.3837.2603-.5206 0-.9839-.0868-1.3902-.2603-.402-.1735-.7427-.4168-1.022-.7299-.275-.3174-.4845-.6877-.6284-1.1109-.1439-.4274-.2158-.8908-.2158-1.3901zm1.8281-.1333v.1333c0 .2877.0254.5565.0762.8061.0508.2497.1312.4698.2412.6602.1143.1862.2624.3322.4443.438.182.1058.4042.1587.6666.1587.2539 0 .4718-.0529.6538-.1587.1819-.1058.3279-.2518.438-.438.11-.1904.1904-.4105.2412-.6602.055-.2496.0825-.5184.0825-.8061v-.1333c0-.2793-.0275-.5417-.0825-.7871-.0508-.2497-.1333-.4697-.2476-.6602-.11-.1946-.256-.347-.438-.457s-.402-.165-.6601-.165c-.2582 0-.4782.055-.6602.165-.1777.11-.3237.2624-.438.457-.11.1905-.1904.4105-.2412.6602-.0508.2454-.0762.5078-.0762.7871z" fill="#fff"/><path d="m35.488 31.1758v1.2949h-3.999v-1.2949zm-3.0087-1.6948h1.8281v6.4936c0 .1989.0254.3512.0762.457.055.1058.1354.1799.2412.2222.1058.0381.2391.0571.3999.0571.1142 0 .2158-.0042.3047-.0127.0931-.0127.1713-.0253.2348-.038l.0064 1.3457c-.1566.0507-.3259.0909-.5078.1206-.182.0296-.383.0444-.6031.0444-.402 0-.7532-.0656-1.0537-.1968-.2962-.1354-.5247-.3512-.6855-.6474-.1608-.2963-.2412-.6856-.2412-1.168z" fill="#fff"/><path d="m38.4621 28.8018-.2095 6.4174h-1.5235l-.2158-6.4174zm-1.9996 8.4043c0-.2709.0931-.4952.2793-.6729.1905-.182.4401-.2729.7491-.2729.3131 0 .5628.0909.749.2729.1862.1777.2793.402.2793.6729 0 .2623-.0931.4845-.2793.6665-.1862.1819-.4359.2729-.749.2729-.309 0-.5586-.091-.7491-.2729-.1862-.182-.2793-.4042-.2793-.6665z" fill="#fff"/></svg>