<svg width="18" height="18" viewBox="0 0 13 13" fill="none" xmlns="http://www.w3.org/2000/svg">
<path d="M6.20194 6.18122C7.39215 6.18122 8.357 5.21637 8.357 4.02616C8.357 2.83595 7.39215 1.87109 6.20194 1.87109C5.01173 1.87109 4.04688 2.83595 4.04688 4.02616C4.04688 5.21637 5.01173 6.18122 6.20194 6.18122Z" stroke="black" stroke-width="1.01415"/>
<path d="M8.3671 7.25879H8.51909C8.83475 7.25887 9.13952 7.36682 9.37614 7.56236C9.61275 7.7579 9.76492 8.02757 9.80407 8.3207L9.97289 9.58302C9.98808 9.69674 9.97724 9.81218 9.94111 9.92168C9.90498 10.0312 9.84437 10.1322 9.76332 10.2181C9.68226 10.3041 9.58261 10.3728 9.47097 10.42C9.35934 10.4671 9.23827 10.4914 9.11581 10.4914H3.30059C3.17813 10.4914 3.05706 10.4671 2.94542 10.42C2.83379 10.3728 2.73413 10.3041 2.65308 10.2181C2.57202 10.1322 2.51142 10.0312 2.47528 9.92168C2.43915 9.81218 2.42832 9.69674 2.4435 9.58302L2.6119 8.3207C2.65106 8.02743 2.80335 7.75765 3.04015 7.5621C3.27695 7.36654 3.58193 7.25868 3.89774 7.25879H4.04929" stroke="black" stroke-width="1.01415" stroke-linecap="round" stroke-linejoin="round"/>
</svg>
